<mxfile host="app.diagrams.net" modified="2020-07-27T17:34:20.148Z" agent="5.0 (Macintosh; Intel Mac OS X 10_14_6) AppleWebKit/537.36 (KHTML, like Gecko) Chrome/83.0.4103.116 Safari/537.36" etag="wvAFC1OPXv35MajQFHok" version="13.5.3" type="github">
  <diagram id="R2lEEEUBdFMjLlhIrx00" name="Page-1">
    <mxGraphModel dx="1511" dy="2128" grid="1" gridSize="10" guides="1" tooltips="1" connect="1" arrows="1" fold="1" page="1" pageScale="1" pageWidth="850" pageHeight="1100" math="0" shadow="0" extFonts="Permanent Marker^https://fonts.googleapis.com/css?family=Permanent+Marker">
      <root>
        <mxCell id="0" />
        <mxCell id="1" parent="0" />
        <mxCell id="C-vyLk0tnHw3VtMMgP7b-1" value="" style="endArrow=ERzeroToMany;startArrow=ERone;endFill=1;startFill=0;exitX=0.5;exitY=0;exitDx=0;exitDy=0;entryX=0;entryY=0.5;entryDx=0;entryDy=0;" parent="1" source="uXHcdg8YxAAHLLAJYdKm-37" target="uXHcdg8YxAAHLLAJYdKm-117" edge="1">
          <mxGeometry width="100" height="100" relative="1" as="geometry">
            <mxPoint x="370" y="-680" as="sourcePoint" />
            <mxPoint x="770" y="-780" as="targetPoint" />
            <Array as="points">
              <mxPoint x="430" y="-815" />
            </Array>
          </mxGeometry>
        </mxCell>
        <mxCell id="N4kGgEexUCMo30Jq0zoL-101" value="" style="edgeStyle=entityRelationEdgeStyle;endArrow=ERzeroToMany;startArrow=ERone;endFill=1;startFill=0;entryX=0;entryY=0.5;entryDx=0;entryDy=0;" parent="1" edge="1" target="uXHcdg8YxAAHLLAJYdKm-139">
          <mxGeometry width="100" height="100" relative="1" as="geometry">
            <mxPoint x="591" y="-535" as="sourcePoint" />
            <mxPoint x="625" y="-490" as="targetPoint" />
          </mxGeometry>
        </mxCell>
        <mxCell id="uXHcdg8YxAAHLLAJYdKm-159" value="" style="fontSize=12;html=1;endArrow=ERzeroToMany;endFill=1;exitX=1;exitY=0.5;exitDx=0;exitDy=0;elbow=vertical;entryX=1;entryY=0.5;entryDx=0;entryDy=0;" edge="1" parent="1" source="uXHcdg8YxAAHLLAJYdKm-108" target="uXHcdg8YxAAHLLAJYdKm-136">
          <mxGeometry width="100" height="100" relative="1" as="geometry">
            <mxPoint x="760" y="-510" as="sourcePoint" />
            <mxPoint x="1253" y="-610" as="targetPoint" />
            <Array as="points">
              <mxPoint x="1420" y="-995" />
              <mxPoint x="1420" y="-505" />
            </Array>
          </mxGeometry>
        </mxCell>
        <mxCell id="uXHcdg8YxAAHLLAJYdKm-161" value="note: only need to reference once on the child" style="rounded=1;arcSize=10;whiteSpace=wrap;html=1;align=center;fillColor=#f8cecc;strokeColor=#b85450;" vertex="1" parent="1">
          <mxGeometry x="520" y="-935" width="180" height="40" as="geometry" />
        </mxCell>
        <mxCell id="uXHcdg8YxAAHLLAJYdKm-107" value="Recipe" style="shape=table;startSize=30;container=1;collapsible=1;childLayout=tableLayout;fixedRows=1;rowLines=0;fontStyle=1;align=center;resizeLast=1;fillColor=#fff2cc;strokeColor=#d6b656;" vertex="1" parent="1">
          <mxGeometry x="782.5" y="-1040" width="470" height="240" as="geometry" />
        </mxCell>
        <mxCell id="uXHcdg8YxAAHLLAJYdKm-108" value="" style="shape=partialRectangle;collapsible=0;dropTarget=0;pointerEvents=0;fillColor=none;top=0;left=0;bottom=1;right=0;points=[[0,0.5],[1,0.5]];portConstraint=eastwest;" vertex="1" parent="uXHcdg8YxAAHLLAJYdKm-107">
          <mxGeometry y="30" width="470" height="30" as="geometry" />
        </mxCell>
        <mxCell id="uXHcdg8YxAAHLLAJYdKm-109" value="PK" style="shape=partialRectangle;connectable=0;fillColor=none;top=0;left=0;bottom=0;right=0;fontStyle=1;overflow=hidden;" vertex="1" parent="uXHcdg8YxAAHLLAJYdKm-108">
          <mxGeometry width="60" height="30" as="geometry" />
        </mxCell>
        <mxCell id="uXHcdg8YxAAHLLAJYdKm-110" value="UniqueID" style="shape=partialRectangle;connectable=0;fillColor=none;top=0;left=0;bottom=0;right=0;align=left;spacingLeft=6;fontStyle=5;overflow=hidden;" vertex="1" parent="uXHcdg8YxAAHLLAJYdKm-108">
          <mxGeometry x="60" width="410" height="30" as="geometry" />
        </mxCell>
        <mxCell id="uXHcdg8YxAAHLLAJYdKm-133" style="shape=partialRectangle;collapsible=0;dropTarget=0;pointerEvents=0;fillColor=none;top=0;left=0;bottom=0;right=0;points=[[0,0.5],[1,0.5]];portConstraint=eastwest;" vertex="1" parent="uXHcdg8YxAAHLLAJYdKm-107">
          <mxGeometry y="60" width="470" height="30" as="geometry" />
        </mxCell>
        <mxCell id="uXHcdg8YxAAHLLAJYdKm-134" value="title" style="shape=partialRectangle;connectable=0;fillColor=none;top=0;left=0;bottom=0;right=0;editable=1;overflow=hidden;" vertex="1" parent="uXHcdg8YxAAHLLAJYdKm-133">
          <mxGeometry width="60" height="30" as="geometry" />
        </mxCell>
        <mxCell id="uXHcdg8YxAAHLLAJYdKm-135" value="{type String, required: true}" style="shape=partialRectangle;connectable=0;fillColor=none;top=0;left=0;bottom=0;right=0;align=left;spacingLeft=6;overflow=hidden;" vertex="1" parent="uXHcdg8YxAAHLLAJYdKm-133">
          <mxGeometry x="60" width="410" height="30" as="geometry" />
        </mxCell>
        <mxCell id="uXHcdg8YxAAHLLAJYdKm-111" value="" style="shape=partialRectangle;collapsible=0;dropTarget=0;pointerEvents=0;fillColor=none;top=0;left=0;bottom=0;right=0;points=[[0,0.5],[1,0.5]];portConstraint=eastwest;" vertex="1" parent="uXHcdg8YxAAHLLAJYdKm-107">
          <mxGeometry y="90" width="470" height="30" as="geometry" />
        </mxCell>
        <mxCell id="uXHcdg8YxAAHLLAJYdKm-112" value="link" style="shape=partialRectangle;connectable=0;fillColor=none;top=0;left=0;bottom=0;right=0;editable=1;overflow=hidden;" vertex="1" parent="uXHcdg8YxAAHLLAJYdKm-111">
          <mxGeometry width="60" height="30" as="geometry" />
        </mxCell>
        <mxCell id="uXHcdg8YxAAHLLAJYdKm-113" value="customer_id int NOT NULL" style="shape=partialRectangle;connectable=0;fillColor=none;top=0;left=0;bottom=0;right=0;align=left;spacingLeft=6;overflow=hidden;fontStyle=1" vertex="1" parent="uXHcdg8YxAAHLLAJYdKm-111">
          <mxGeometry x="60" width="410" height="30" as="geometry" />
        </mxCell>
        <mxCell id="uXHcdg8YxAAHLLAJYdKm-127" style="shape=partialRectangle;collapsible=0;dropTarget=0;pointerEvents=0;fillColor=none;top=0;left=0;bottom=0;right=0;points=[[0,0.5],[1,0.5]];portConstraint=eastwest;" vertex="1" parent="uXHcdg8YxAAHLLAJYdKm-107">
          <mxGeometry y="120" width="470" height="30" as="geometry" />
        </mxCell>
        <mxCell id="uXHcdg8YxAAHLLAJYdKm-128" value="ingredients" style="shape=partialRectangle;connectable=0;fillColor=none;top=0;left=0;bottom=0;right=0;editable=1;overflow=hidden;" vertex="1" parent="uXHcdg8YxAAHLLAJYdKm-127">
          <mxGeometry width="60" height="30" as="geometry" />
        </mxCell>
        <mxCell id="uXHcdg8YxAAHLLAJYdKm-129" value="{type [String], required: true}" style="shape=partialRectangle;connectable=0;fillColor=none;top=0;left=0;bottom=0;right=0;align=left;spacingLeft=6;overflow=hidden;" vertex="1" parent="uXHcdg8YxAAHLLAJYdKm-127">
          <mxGeometry x="60" width="410" height="30" as="geometry" />
        </mxCell>
        <mxCell id="uXHcdg8YxAAHLLAJYdKm-124" style="shape=partialRectangle;collapsible=0;dropTarget=0;pointerEvents=0;fillColor=none;top=0;left=0;bottom=0;right=0;points=[[0,0.5],[1,0.5]];portConstraint=eastwest;" vertex="1" parent="uXHcdg8YxAAHLLAJYdKm-107">
          <mxGeometry y="150" width="470" height="30" as="geometry" />
        </mxCell>
        <mxCell id="uXHcdg8YxAAHLLAJYdKm-125" value="content" style="shape=partialRectangle;connectable=0;fillColor=none;top=0;left=0;bottom=0;right=0;editable=1;overflow=hidden;" vertex="1" parent="uXHcdg8YxAAHLLAJYdKm-124">
          <mxGeometry width="60" height="30" as="geometry" />
        </mxCell>
        <mxCell id="uXHcdg8YxAAHLLAJYdKm-126" value="{type String, required: true}" style="shape=partialRectangle;connectable=0;fillColor=none;top=0;left=0;bottom=0;right=0;align=left;spacingLeft=6;overflow=hidden;" vertex="1" parent="uXHcdg8YxAAHLLAJYdKm-124">
          <mxGeometry x="60" width="410" height="30" as="geometry" />
        </mxCell>
        <mxCell id="uXHcdg8YxAAHLLAJYdKm-121" style="shape=partialRectangle;collapsible=0;dropTarget=0;pointerEvents=0;fillColor=none;top=0;left=0;bottom=0;right=0;points=[[0,0.5],[1,0.5]];portConstraint=eastwest;" vertex="1" parent="uXHcdg8YxAAHLLAJYdKm-107">
          <mxGeometry y="180" width="470" height="30" as="geometry" />
        </mxCell>
        <mxCell id="uXHcdg8YxAAHLLAJYdKm-122" value="tags" style="shape=partialRectangle;connectable=0;fillColor=none;top=0;left=0;bottom=0;right=0;editable=1;overflow=hidden;" vertex="1" parent="uXHcdg8YxAAHLLAJYdKm-121">
          <mxGeometry width="60" height="30" as="geometry" />
        </mxCell>
        <mxCell id="uXHcdg8YxAAHLLAJYdKm-123" value="{type [String], required: true}" style="shape=partialRectangle;connectable=0;fillColor=none;top=0;left=0;bottom=0;right=0;align=left;spacingLeft=6;overflow=hidden;" vertex="1" parent="uXHcdg8YxAAHLLAJYdKm-121">
          <mxGeometry x="60" width="410" height="30" as="geometry" />
        </mxCell>
        <mxCell id="uXHcdg8YxAAHLLAJYdKm-117" value="" style="shape=partialRectangle;collapsible=0;dropTarget=0;pointerEvents=0;fillColor=none;top=0;left=0;bottom=0;right=0;points=[[0,0.5],[1,0.5]];portConstraint=eastwest;" vertex="1" parent="uXHcdg8YxAAHLLAJYdKm-107">
          <mxGeometry y="210" width="470" height="30" as="geometry" />
        </mxCell>
        <mxCell id="uXHcdg8YxAAHLLAJYdKm-118" value="profile" style="shape=partialRectangle;connectable=0;fillColor=#d5e8d4;top=0;left=0;bottom=0;right=0;editable=1;overflow=hidden;strokeColor=#82b366;" vertex="1" parent="uXHcdg8YxAAHLLAJYdKm-117">
          <mxGeometry width="60" height="30" as="geometry" />
        </mxCell>
        <mxCell id="uXHcdg8YxAAHLLAJYdKm-119" value="{ type: mongoose.Schema.Types.ObjectId, ref: &#39;Profile&#39;, required: true }," style="shape=partialRectangle;connectable=0;fillColor=#d5e8d4;top=0;left=0;bottom=0;right=0;align=left;spacingLeft=6;overflow=hidden;strokeColor=#82b366;" vertex="1" parent="uXHcdg8YxAAHLLAJYdKm-117">
          <mxGeometry x="60" width="410" height="30" as="geometry" />
        </mxCell>
        <mxCell id="uXHcdg8YxAAHLLAJYdKm-94" value="Tips" style="shape=table;startSize=30;container=1;collapsible=1;childLayout=tableLayout;fixedRows=1;rowLines=0;fontStyle=1;align=center;resizeLast=1;fillColor=#dae8fc;strokeColor=#6c8ebf;" vertex="1" parent="1">
          <mxGeometry x="782.5" y="-730" width="467.5" height="240" as="geometry" />
        </mxCell>
        <mxCell id="uXHcdg8YxAAHLLAJYdKm-95" value="" style="shape=partialRectangle;collapsible=0;dropTarget=0;pointerEvents=0;fillColor=none;top=0;left=0;bottom=1;right=0;points=[[0,0.5],[1,0.5]];portConstraint=eastwest;" vertex="1" parent="uXHcdg8YxAAHLLAJYdKm-94">
          <mxGeometry y="30" width="467.5" height="30" as="geometry" />
        </mxCell>
        <mxCell id="uXHcdg8YxAAHLLAJYdKm-96" value="PK" style="shape=partialRectangle;connectable=0;fillColor=none;top=0;left=0;bottom=0;right=0;fontStyle=1;overflow=hidden;" vertex="1" parent="uXHcdg8YxAAHLLAJYdKm-95">
          <mxGeometry width="80" height="30" as="geometry" />
        </mxCell>
        <mxCell id="uXHcdg8YxAAHLLAJYdKm-97" value="UniqueID" style="shape=partialRectangle;connectable=0;fillColor=none;top=0;left=0;bottom=0;right=0;align=left;spacingLeft=6;fontStyle=5;overflow=hidden;" vertex="1" parent="uXHcdg8YxAAHLLAJYdKm-95">
          <mxGeometry x="80" width="387.5" height="30" as="geometry" />
        </mxCell>
        <mxCell id="uXHcdg8YxAAHLLAJYdKm-98" value="" style="shape=partialRectangle;collapsible=0;dropTarget=0;pointerEvents=0;fillColor=none;top=0;left=0;bottom=0;right=0;points=[[0,0.5],[1,0.5]];portConstraint=eastwest;" vertex="1" parent="uXHcdg8YxAAHLLAJYdKm-94">
          <mxGeometry y="60" width="467.5" height="30" as="geometry" />
        </mxCell>
        <mxCell id="uXHcdg8YxAAHLLAJYdKm-99" value="username" style="shape=partialRectangle;connectable=0;fillColor=none;top=0;left=0;bottom=0;right=0;editable=1;overflow=hidden;" vertex="1" parent="uXHcdg8YxAAHLLAJYdKm-98">
          <mxGeometry width="80" height="30" as="geometry" />
        </mxCell>
        <mxCell id="uXHcdg8YxAAHLLAJYdKm-100" value="{type String, required: true}" style="shape=partialRectangle;connectable=0;fillColor=none;top=0;left=0;bottom=0;right=0;align=left;spacingLeft=6;overflow=hidden;" vertex="1" parent="uXHcdg8YxAAHLLAJYdKm-98">
          <mxGeometry x="80" width="387.5" height="30" as="geometry" />
        </mxCell>
        <mxCell id="uXHcdg8YxAAHLLAJYdKm-101" value="" style="shape=partialRectangle;collapsible=0;dropTarget=0;pointerEvents=0;fillColor=none;top=0;left=0;bottom=0;right=0;points=[[0,0.5],[1,0.5]];portConstraint=eastwest;" vertex="1" parent="uXHcdg8YxAAHLLAJYdKm-94">
          <mxGeometry y="90" width="467.5" height="30" as="geometry" />
        </mxCell>
        <mxCell id="uXHcdg8YxAAHLLAJYdKm-102" value="content" style="shape=partialRectangle;connectable=0;fillColor=none;top=0;left=0;bottom=0;right=0;editable=1;overflow=hidden;" vertex="1" parent="uXHcdg8YxAAHLLAJYdKm-101">
          <mxGeometry width="80" height="30" as="geometry" />
        </mxCell>
        <mxCell id="uXHcdg8YxAAHLLAJYdKm-103" value="{type String, required: true}" style="shape=partialRectangle;connectable=0;fillColor=none;top=0;left=0;bottom=0;right=0;align=left;spacingLeft=6;overflow=hidden;" vertex="1" parent="uXHcdg8YxAAHLLAJYdKm-101">
          <mxGeometry x="80" width="387.5" height="30" as="geometry" />
        </mxCell>
        <mxCell id="uXHcdg8YxAAHLLAJYdKm-104" value="" style="shape=partialRectangle;collapsible=0;dropTarget=0;pointerEvents=0;fillColor=none;top=0;left=0;bottom=0;right=0;points=[[0,0.5],[1,0.5]];portConstraint=eastwest;" vertex="1" parent="uXHcdg8YxAAHLLAJYdKm-94">
          <mxGeometry y="120" width="467.5" height="30" as="geometry" />
        </mxCell>
        <mxCell id="uXHcdg8YxAAHLLAJYdKm-105" value="link" style="shape=partialRectangle;connectable=0;fillColor=none;top=0;left=0;bottom=0;right=0;editable=1;overflow=hidden;" vertex="1" parent="uXHcdg8YxAAHLLAJYdKm-104">
          <mxGeometry width="80" height="30" as="geometry" />
        </mxCell>
        <mxCell id="uXHcdg8YxAAHLLAJYdKm-106" value="{type String, required: true}" style="shape=partialRectangle;connectable=0;fillColor=none;top=0;left=0;bottom=0;right=0;align=left;spacingLeft=6;overflow=hidden;" vertex="1" parent="uXHcdg8YxAAHLLAJYdKm-104">
          <mxGeometry x="80" width="387.5" height="30" as="geometry" />
        </mxCell>
        <mxCell id="uXHcdg8YxAAHLLAJYdKm-142" style="shape=partialRectangle;collapsible=0;dropTarget=0;pointerEvents=0;fillColor=none;top=0;left=0;bottom=0;right=0;points=[[0,0.5],[1,0.5]];portConstraint=eastwest;" vertex="1" parent="uXHcdg8YxAAHLLAJYdKm-94">
          <mxGeometry y="150" width="467.5" height="30" as="geometry" />
        </mxCell>
        <mxCell id="uXHcdg8YxAAHLLAJYdKm-143" value="useful" style="shape=partialRectangle;connectable=0;fillColor=none;top=0;left=0;bottom=0;right=0;editable=1;overflow=hidden;" vertex="1" parent="uXHcdg8YxAAHLLAJYdKm-142">
          <mxGeometry width="80" height="30" as="geometry" />
        </mxCell>
        <mxCell id="uXHcdg8YxAAHLLAJYdKm-144" value="{type Boolean, required: true}" style="shape=partialRectangle;connectable=0;fillColor=none;top=0;left=0;bottom=0;right=0;align=left;spacingLeft=6;overflow=hidden;" vertex="1" parent="uXHcdg8YxAAHLLAJYdKm-142">
          <mxGeometry x="80" width="387.5" height="30" as="geometry" />
        </mxCell>
        <mxCell id="uXHcdg8YxAAHLLAJYdKm-139" style="shape=partialRectangle;collapsible=0;dropTarget=0;pointerEvents=0;fillColor=none;top=0;left=0;bottom=0;right=0;points=[[0,0.5],[1,0.5]];portConstraint=eastwest;" vertex="1" parent="uXHcdg8YxAAHLLAJYdKm-94">
          <mxGeometry y="180" width="467.5" height="30" as="geometry" />
        </mxCell>
        <mxCell id="uXHcdg8YxAAHLLAJYdKm-140" value="profile" style="shape=partialRectangle;connectable=0;fillColor=#d5e8d4;top=0;left=0;bottom=0;right=0;editable=1;overflow=hidden;strokeColor=#82b366;" vertex="1" parent="uXHcdg8YxAAHLLAJYdKm-139">
          <mxGeometry width="80" height="30" as="geometry" />
        </mxCell>
        <mxCell id="uXHcdg8YxAAHLLAJYdKm-141" value="{ type: mongoose.Schema.Types.ObjectId, ref: &#39;Profile&#39;, required: true }," style="shape=partialRectangle;connectable=0;fillColor=#d5e8d4;top=0;left=0;bottom=0;right=0;align=left;spacingLeft=6;overflow=hidden;strokeColor=#82b366;" vertex="1" parent="uXHcdg8YxAAHLLAJYdKm-139">
          <mxGeometry x="80" width="387.5" height="30" as="geometry" />
        </mxCell>
        <mxCell id="uXHcdg8YxAAHLLAJYdKm-136" style="shape=partialRectangle;collapsible=0;dropTarget=0;pointerEvents=0;fillColor=none;top=0;left=0;bottom=0;right=0;points=[[0,0.5],[1,0.5]];portConstraint=eastwest;" vertex="1" parent="uXHcdg8YxAAHLLAJYdKm-94">
          <mxGeometry y="210" width="467.5" height="30" as="geometry" />
        </mxCell>
        <mxCell id="uXHcdg8YxAAHLLAJYdKm-137" value="recipe" style="shape=partialRectangle;connectable=0;fillColor=#fff2cc;top=0;left=0;bottom=0;right=0;editable=1;overflow=hidden;strokeColor=#d6b656;" vertex="1" parent="uXHcdg8YxAAHLLAJYdKm-136">
          <mxGeometry width="80" height="30" as="geometry" />
        </mxCell>
        <mxCell id="uXHcdg8YxAAHLLAJYdKm-138" value="{ type: mongoose.Schema.Types.ObjectId, ref: &#39;Recipe&#39;, required: true }," style="shape=partialRectangle;connectable=0;fillColor=#fff2cc;top=0;left=0;bottom=0;right=0;align=left;spacingLeft=6;overflow=hidden;strokeColor=#d6b656;" vertex="1" parent="uXHcdg8YxAAHLLAJYdKm-136">
          <mxGeometry x="80" width="387.5" height="30" as="geometry" />
        </mxCell>
        <mxCell id="uXHcdg8YxAAHLLAJYdKm-81" value="Recipe Rating" style="shape=table;startSize=30;container=1;collapsible=1;childLayout=tableLayout;fixedRows=1;rowLines=0;fontStyle=1;align=center;resizeLast=1;fillColor=#f8cecc;strokeColor=#b85450;" vertex="1" parent="1">
          <mxGeometry x="780" y="-460" width="472.5" height="160" as="geometry" />
        </mxCell>
        <mxCell id="uXHcdg8YxAAHLLAJYdKm-82" value="" style="shape=partialRectangle;collapsible=0;dropTarget=0;pointerEvents=0;fillColor=none;top=0;left=0;bottom=1;right=0;points=[[0,0.5],[1,0.5]];portConstraint=eastwest;" vertex="1" parent="uXHcdg8YxAAHLLAJYdKm-81">
          <mxGeometry y="30" width="472.5" height="30" as="geometry" />
        </mxCell>
        <mxCell id="uXHcdg8YxAAHLLAJYdKm-83" value="PK" style="shape=partialRectangle;connectable=0;fillColor=none;top=0;left=0;bottom=0;right=0;fontStyle=1;overflow=hidden;" vertex="1" parent="uXHcdg8YxAAHLLAJYdKm-82">
          <mxGeometry width="80" height="30" as="geometry" />
        </mxCell>
        <mxCell id="uXHcdg8YxAAHLLAJYdKm-84" value="UniqueID" style="shape=partialRectangle;connectable=0;fillColor=none;top=0;left=0;bottom=0;right=0;align=left;spacingLeft=6;fontStyle=5;overflow=hidden;" vertex="1" parent="uXHcdg8YxAAHLLAJYdKm-82">
          <mxGeometry x="80" width="392.5" height="30" as="geometry" />
        </mxCell>
        <mxCell id="uXHcdg8YxAAHLLAJYdKm-85" value="" style="shape=partialRectangle;collapsible=0;dropTarget=0;pointerEvents=0;fillColor=none;top=0;left=0;bottom=0;right=0;points=[[0,0.5],[1,0.5]];portConstraint=eastwest;" vertex="1" parent="uXHcdg8YxAAHLLAJYdKm-81">
          <mxGeometry y="60" width="472.5" height="30" as="geometry" />
        </mxCell>
        <mxCell id="uXHcdg8YxAAHLLAJYdKm-86" value="like" style="shape=partialRectangle;connectable=0;fillColor=none;top=0;left=0;bottom=0;right=0;editable=1;overflow=hidden;" vertex="1" parent="uXHcdg8YxAAHLLAJYdKm-85">
          <mxGeometry width="80" height="30" as="geometry" />
        </mxCell>
        <mxCell id="uXHcdg8YxAAHLLAJYdKm-87" value="{type Boolean, required: true}" style="shape=partialRectangle;connectable=0;fillColor=none;top=0;left=0;bottom=0;right=0;align=left;spacingLeft=6;overflow=hidden;fontStyle=0" vertex="1" parent="uXHcdg8YxAAHLLAJYdKm-85">
          <mxGeometry x="80" width="392.5" height="30" as="geometry" />
        </mxCell>
        <mxCell id="uXHcdg8YxAAHLLAJYdKm-88" value="" style="shape=partialRectangle;collapsible=0;dropTarget=0;pointerEvents=0;fillColor=none;top=0;left=0;bottom=0;right=0;points=[[0,0.5],[1,0.5]];portConstraint=eastwest;" vertex="1" parent="uXHcdg8YxAAHLLAJYdKm-81">
          <mxGeometry y="90" width="472.5" height="30" as="geometry" />
        </mxCell>
        <mxCell id="uXHcdg8YxAAHLLAJYdKm-89" value="recipe" style="shape=partialRectangle;connectable=0;fillColor=none;top=0;left=0;bottom=0;right=0;editable=1;overflow=hidden;" vertex="1" parent="uXHcdg8YxAAHLLAJYdKm-88">
          <mxGeometry width="80" height="30" as="geometry" />
        </mxCell>
        <mxCell id="uXHcdg8YxAAHLLAJYdKm-90" value="{ type: mongoose.Schema.Types.ObjectId, ref: &#39;Recipe&#39;, required: true }," style="shape=partialRectangle;connectable=0;fillColor=none;top=0;left=0;bottom=0;right=0;align=left;spacingLeft=6;overflow=hidden;" vertex="1" parent="uXHcdg8YxAAHLLAJYdKm-88">
          <mxGeometry x="80" width="392.5" height="30" as="geometry" />
        </mxCell>
        <mxCell id="uXHcdg8YxAAHLLAJYdKm-91" value="" style="shape=partialRectangle;collapsible=0;dropTarget=0;pointerEvents=0;fillColor=none;top=0;left=0;bottom=0;right=0;points=[[0,0.5],[1,0.5]];portConstraint=eastwest;" vertex="1" parent="uXHcdg8YxAAHLLAJYdKm-81">
          <mxGeometry y="120" width="472.5" height="30" as="geometry" />
        </mxCell>
        <mxCell id="uXHcdg8YxAAHLLAJYdKm-92" value="profile" style="shape=partialRectangle;connectable=0;fillColor=none;top=0;left=0;bottom=0;right=0;editable=1;overflow=hidden;" vertex="1" parent="uXHcdg8YxAAHLLAJYdKm-91">
          <mxGeometry width="80" height="30" as="geometry" />
        </mxCell>
        <mxCell id="uXHcdg8YxAAHLLAJYdKm-93" value="{ type: mongoose.Schema.Types.ObjectId, ref: &#39;Profile&#39;, required: true }," style="shape=partialRectangle;connectable=0;fillColor=none;top=0;left=0;bottom=0;right=0;align=left;spacingLeft=6;overflow=hidden;" vertex="1" parent="uXHcdg8YxAAHLLAJYdKm-91">
          <mxGeometry x="80" width="392.5" height="30" as="geometry" />
        </mxCell>
        <mxCell id="uXHcdg8YxAAHLLAJYdKm-145" value="Recipe Rating" style="shape=table;startSize=30;container=1;collapsible=1;childLayout=tableLayout;fixedRows=1;rowLines=0;fontStyle=1;align=center;resizeLast=1;fillColor=#f8cecc;strokeColor=#b85450;" vertex="1" parent="1">
          <mxGeometry x="780" y="-270" width="472.5" height="160" as="geometry" />
        </mxCell>
        <mxCell id="uXHcdg8YxAAHLLAJYdKm-146" value="" style="shape=partialRectangle;collapsible=0;dropTarget=0;pointerEvents=0;fillColor=none;top=0;left=0;bottom=1;right=0;points=[[0,0.5],[1,0.5]];portConstraint=eastwest;" vertex="1" parent="uXHcdg8YxAAHLLAJYdKm-145">
          <mxGeometry y="30" width="472.5" height="30" as="geometry" />
        </mxCell>
        <mxCell id="uXHcdg8YxAAHLLAJYdKm-147" value="PK" style="shape=partialRectangle;connectable=0;fillColor=none;top=0;left=0;bottom=0;right=0;fontStyle=1;overflow=hidden;" vertex="1" parent="uXHcdg8YxAAHLLAJYdKm-146">
          <mxGeometry width="80" height="30" as="geometry" />
        </mxCell>
        <mxCell id="uXHcdg8YxAAHLLAJYdKm-148" value="UniqueID" style="shape=partialRectangle;connectable=0;fillColor=none;top=0;left=0;bottom=0;right=0;align=left;spacingLeft=6;fontStyle=5;overflow=hidden;" vertex="1" parent="uXHcdg8YxAAHLLAJYdKm-146">
          <mxGeometry x="80" width="392.5" height="30" as="geometry" />
        </mxCell>
        <mxCell id="uXHcdg8YxAAHLLAJYdKm-149" value="" style="shape=partialRectangle;collapsible=0;dropTarget=0;pointerEvents=0;fillColor=none;top=0;left=0;bottom=0;right=0;points=[[0,0.5],[1,0.5]];portConstraint=eastwest;" vertex="1" parent="uXHcdg8YxAAHLLAJYdKm-145">
          <mxGeometry y="60" width="472.5" height="30" as="geometry" />
        </mxCell>
        <mxCell id="uXHcdg8YxAAHLLAJYdKm-150" value="like" style="shape=partialRectangle;connectable=0;fillColor=none;top=0;left=0;bottom=0;right=0;editable=1;overflow=hidden;" vertex="1" parent="uXHcdg8YxAAHLLAJYdKm-149">
          <mxGeometry width="80" height="30" as="geometry" />
        </mxCell>
        <mxCell id="uXHcdg8YxAAHLLAJYdKm-151" value="{type Boolean, required: true}" style="shape=partialRectangle;connectable=0;fillColor=none;top=0;left=0;bottom=0;right=0;align=left;spacingLeft=6;overflow=hidden;fontStyle=0" vertex="1" parent="uXHcdg8YxAAHLLAJYdKm-149">
          <mxGeometry x="80" width="392.5" height="30" as="geometry" />
        </mxCell>
        <mxCell id="uXHcdg8YxAAHLLAJYdKm-152" value="" style="shape=partialRectangle;collapsible=0;dropTarget=0;pointerEvents=0;fillColor=none;top=0;left=0;bottom=0;right=0;points=[[0,0.5],[1,0.5]];portConstraint=eastwest;" vertex="1" parent="uXHcdg8YxAAHLLAJYdKm-145">
          <mxGeometry y="90" width="472.5" height="30" as="geometry" />
        </mxCell>
        <mxCell id="uXHcdg8YxAAHLLAJYdKm-153" value="tip" style="shape=partialRectangle;connectable=0;fillColor=none;top=0;left=0;bottom=0;right=0;editable=1;overflow=hidden;" vertex="1" parent="uXHcdg8YxAAHLLAJYdKm-152">
          <mxGeometry width="80" height="30" as="geometry" />
        </mxCell>
        <mxCell id="uXHcdg8YxAAHLLAJYdKm-154" value="{ type: mongoose.Schema.Types.ObjectId, ref: &#39;Tip&#39;, required: true }," style="shape=partialRectangle;connectable=0;fillColor=none;top=0;left=0;bottom=0;right=0;align=left;spacingLeft=6;overflow=hidden;" vertex="1" parent="uXHcdg8YxAAHLLAJYdKm-152">
          <mxGeometry x="80" width="392.5" height="30" as="geometry" />
        </mxCell>
        <mxCell id="uXHcdg8YxAAHLLAJYdKm-155" value="" style="shape=partialRectangle;collapsible=0;dropTarget=0;pointerEvents=0;fillColor=none;top=0;left=0;bottom=0;right=0;points=[[0,0.5],[1,0.5]];portConstraint=eastwest;" vertex="1" parent="uXHcdg8YxAAHLLAJYdKm-145">
          <mxGeometry y="120" width="472.5" height="30" as="geometry" />
        </mxCell>
        <mxCell id="uXHcdg8YxAAHLLAJYdKm-156" value="profile" style="shape=partialRectangle;connectable=0;fillColor=none;top=0;left=0;bottom=0;right=0;editable=1;overflow=hidden;" vertex="1" parent="uXHcdg8YxAAHLLAJYdKm-155">
          <mxGeometry width="80" height="30" as="geometry" />
        </mxCell>
        <mxCell id="uXHcdg8YxAAHLLAJYdKm-157" value="{ type: mongoose.Schema.Types.ObjectId, ref: &#39;Profile&#39;, required: true }," style="shape=partialRectangle;connectable=0;fillColor=none;top=0;left=0;bottom=0;right=0;align=left;spacingLeft=6;overflow=hidden;" vertex="1" parent="uXHcdg8YxAAHLLAJYdKm-155">
          <mxGeometry x="80" width="392.5" height="30" as="geometry" />
        </mxCell>
        <mxCell id="uXHcdg8YxAAHLLAJYdKm-37" value="Profile" style="shape=table;startSize=30;container=1;collapsible=1;childLayout=tableLayout;fixedRows=1;rowLines=0;fontStyle=1;align=center;resizeLast=1;fillColor=#d5e8d4;strokeColor=#82b366;" vertex="1" parent="1">
          <mxGeometry x="270" y="-710" width="320" height="310" as="geometry" />
        </mxCell>
        <mxCell id="uXHcdg8YxAAHLLAJYdKm-38" value="" style="shape=partialRectangle;collapsible=0;dropTarget=0;pointerEvents=0;fillColor=none;top=0;left=0;bottom=1;right=0;points=[[0,0.5],[1,0.5]];portConstraint=eastwest;" vertex="1" parent="uXHcdg8YxAAHLLAJYdKm-37">
          <mxGeometry y="30" width="320" height="30" as="geometry" />
        </mxCell>
        <mxCell id="uXHcdg8YxAAHLLAJYdKm-39" value="PK" style="shape=partialRectangle;connectable=0;fillColor=none;top=0;left=0;bottom=0;right=0;fontStyle=1;overflow=hidden;" vertex="1" parent="uXHcdg8YxAAHLLAJYdKm-38">
          <mxGeometry width="70" height="30" as="geometry" />
        </mxCell>
        <mxCell id="uXHcdg8YxAAHLLAJYdKm-40" value="UniqueID" style="shape=partialRectangle;connectable=0;fillColor=none;top=0;left=0;bottom=0;right=0;align=left;spacingLeft=6;fontStyle=5;overflow=hidden;" vertex="1" parent="uXHcdg8YxAAHLLAJYdKm-38">
          <mxGeometry x="70" width="250" height="30" as="geometry" />
        </mxCell>
        <mxCell id="uXHcdg8YxAAHLLAJYdKm-41" value="" style="shape=partialRectangle;collapsible=0;dropTarget=0;pointerEvents=0;fillColor=none;top=0;left=0;bottom=0;right=0;points=[[0,0.5],[1,0.5]];portConstraint=eastwest;" vertex="1" parent="uXHcdg8YxAAHLLAJYdKm-37">
          <mxGeometry y="60" width="320" height="30" as="geometry" />
        </mxCell>
        <mxCell id="uXHcdg8YxAAHLLAJYdKm-42" value="firstName" style="shape=partialRectangle;connectable=0;fillColor=none;top=0;left=0;bottom=0;right=0;editable=1;overflow=hidden;" vertex="1" parent="uXHcdg8YxAAHLLAJYdKm-41">
          <mxGeometry width="70" height="30" as="geometry" />
        </mxCell>
        <mxCell id="uXHcdg8YxAAHLLAJYdKm-43" value="{type String, required: true}" style="shape=partialRectangle;connectable=0;fillColor=none;top=0;left=0;bottom=0;right=0;align=left;spacingLeft=6;overflow=hidden;" vertex="1" parent="uXHcdg8YxAAHLLAJYdKm-41">
          <mxGeometry x="70" width="250" height="30" as="geometry" />
        </mxCell>
        <mxCell id="uXHcdg8YxAAHLLAJYdKm-44" value="" style="shape=partialRectangle;collapsible=0;dropTarget=0;pointerEvents=0;fillColor=none;top=0;left=0;bottom=0;right=0;points=[[0,0.5],[1,0.5]];portConstraint=eastwest;" vertex="1" parent="uXHcdg8YxAAHLLAJYdKm-37">
          <mxGeometry y="90" width="320" height="30" as="geometry" />
        </mxCell>
        <mxCell id="uXHcdg8YxAAHLLAJYdKm-45" value="lastName" style="shape=partialRectangle;connectable=0;fillColor=none;top=0;left=0;bottom=0;right=0;editable=1;overflow=hidden;" vertex="1" parent="uXHcdg8YxAAHLLAJYdKm-44">
          <mxGeometry width="70" height="30" as="geometry" />
        </mxCell>
        <mxCell id="uXHcdg8YxAAHLLAJYdKm-46" value="{type String, required: true}" style="shape=partialRectangle;connectable=0;fillColor=none;top=0;left=0;bottom=0;right=0;align=left;spacingLeft=6;overflow=hidden;" vertex="1" parent="uXHcdg8YxAAHLLAJYdKm-44">
          <mxGeometry x="70" width="250" height="30" as="geometry" />
        </mxCell>
        <mxCell id="uXHcdg8YxAAHLLAJYdKm-47" value="" style="shape=partialRectangle;collapsible=0;dropTarget=0;pointerEvents=0;fillColor=none;top=0;left=0;bottom=0;right=0;points=[[0,0.5],[1,0.5]];portConstraint=eastwest;" vertex="1" parent="uXHcdg8YxAAHLLAJYdKm-37">
          <mxGeometry y="120" width="320" height="30" as="geometry" />
        </mxCell>
        <mxCell id="uXHcdg8YxAAHLLAJYdKm-48" value="username" style="shape=partialRectangle;connectable=0;fillColor=none;top=0;left=0;bottom=0;right=0;editable=1;overflow=hidden;" vertex="1" parent="uXHcdg8YxAAHLLAJYdKm-47">
          <mxGeometry width="70" height="30" as="geometry" />
        </mxCell>
        <mxCell id="uXHcdg8YxAAHLLAJYdKm-49" value="{type String, required: true}" style="shape=partialRectangle;connectable=0;fillColor=none;top=0;left=0;bottom=0;right=0;align=left;spacingLeft=6;overflow=hidden;" vertex="1" parent="uXHcdg8YxAAHLLAJYdKm-47">
          <mxGeometry x="70" width="250" height="30" as="geometry" />
        </mxCell>
        <mxCell id="uXHcdg8YxAAHLLAJYdKm-53" style="shape=partialRectangle;collapsible=0;dropTarget=0;pointerEvents=0;fillColor=none;top=0;left=0;bottom=0;right=0;points=[[0,0.5],[1,0.5]];portConstraint=eastwest;" vertex="1" parent="uXHcdg8YxAAHLLAJYdKm-37">
          <mxGeometry y="150" width="320" height="30" as="geometry" />
        </mxCell>
        <mxCell id="uXHcdg8YxAAHLLAJYdKm-54" value="password" style="shape=partialRectangle;connectable=0;fillColor=none;top=0;left=0;bottom=0;right=0;editable=1;overflow=hidden;" vertex="1" parent="uXHcdg8YxAAHLLAJYdKm-53">
          <mxGeometry width="70" height="30" as="geometry" />
        </mxCell>
        <mxCell id="uXHcdg8YxAAHLLAJYdKm-55" value="{type String, required: true}" style="shape=partialRectangle;connectable=0;fillColor=none;top=0;left=0;bottom=0;right=0;align=left;spacingLeft=6;overflow=hidden;" vertex="1" parent="uXHcdg8YxAAHLLAJYdKm-53">
          <mxGeometry x="70" width="250" height="30" as="geometry" />
        </mxCell>
        <mxCell id="uXHcdg8YxAAHLLAJYdKm-50" style="shape=partialRectangle;collapsible=0;dropTarget=0;pointerEvents=0;fillColor=none;top=0;left=0;bottom=0;right=0;points=[[0,0.5],[1,0.5]];portConstraint=eastwest;" vertex="1" parent="uXHcdg8YxAAHLLAJYdKm-37">
          <mxGeometry y="180" width="320" height="30" as="geometry" />
        </mxCell>
        <mxCell id="uXHcdg8YxAAHLLAJYdKm-51" value="email" style="shape=partialRectangle;connectable=0;fillColor=none;top=0;left=0;bottom=0;right=0;editable=1;overflow=hidden;" vertex="1" parent="uXHcdg8YxAAHLLAJYdKm-50">
          <mxGeometry width="70" height="30" as="geometry" />
        </mxCell>
        <mxCell id="uXHcdg8YxAAHLLAJYdKm-52" value="{type String, required: true}" style="shape=partialRectangle;connectable=0;fillColor=none;top=0;left=0;bottom=0;right=0;align=left;spacingLeft=6;overflow=hidden;" vertex="1" parent="uXHcdg8YxAAHLLAJYdKm-50">
          <mxGeometry x="70" width="250" height="30" as="geometry" />
        </mxCell>
        <mxCell id="uXHcdg8YxAAHLLAJYdKm-65" style="shape=partialRectangle;collapsible=0;dropTarget=0;pointerEvents=0;fillColor=none;top=0;left=0;bottom=0;right=0;points=[[0,0.5],[1,0.5]];portConstraint=eastwest;" vertex="1" parent="uXHcdg8YxAAHLLAJYdKm-37">
          <mxGeometry y="210" width="320" height="30" as="geometry" />
        </mxCell>
        <mxCell id="uXHcdg8YxAAHLLAJYdKm-66" value="bio" style="shape=partialRectangle;connectable=0;fillColor=none;top=0;left=0;bottom=0;right=0;editable=1;overflow=hidden;" vertex="1" parent="uXHcdg8YxAAHLLAJYdKm-65">
          <mxGeometry width="70" height="30" as="geometry" />
        </mxCell>
        <mxCell id="uXHcdg8YxAAHLLAJYdKm-67" value="String" style="shape=partialRectangle;connectable=0;fillColor=none;top=0;left=0;bottom=0;right=0;align=left;spacingLeft=6;overflow=hidden;" vertex="1" parent="uXHcdg8YxAAHLLAJYdKm-65">
          <mxGeometry x="70" width="250" height="30" as="geometry" />
        </mxCell>
        <mxCell id="uXHcdg8YxAAHLLAJYdKm-62" style="shape=partialRectangle;collapsible=0;dropTarget=0;pointerEvents=0;fillColor=none;top=0;left=0;bottom=0;right=0;points=[[0,0.5],[1,0.5]];portConstraint=eastwest;" vertex="1" parent="uXHcdg8YxAAHLLAJYdKm-37">
          <mxGeometry y="240" width="320" height="30" as="geometry" />
        </mxCell>
        <mxCell id="uXHcdg8YxAAHLLAJYdKm-63" value="github" style="shape=partialRectangle;connectable=0;fillColor=none;top=0;left=0;bottom=0;right=0;editable=1;overflow=hidden;" vertex="1" parent="uXHcdg8YxAAHLLAJYdKm-62">
          <mxGeometry width="70" height="30" as="geometry" />
        </mxCell>
        <mxCell id="uXHcdg8YxAAHLLAJYdKm-64" value="String" style="shape=partialRectangle;connectable=0;fillColor=none;top=0;left=0;bottom=0;right=0;align=left;spacingLeft=6;overflow=hidden;" vertex="1" parent="uXHcdg8YxAAHLLAJYdKm-62">
          <mxGeometry x="70" width="250" height="30" as="geometry" />
        </mxCell>
        <mxCell id="uXHcdg8YxAAHLLAJYdKm-59" style="shape=partialRectangle;collapsible=0;dropTarget=0;pointerEvents=0;fillColor=none;top=0;left=0;bottom=0;right=0;points=[[0,0.5],[1,0.5]];portConstraint=eastwest;" vertex="1" parent="uXHcdg8YxAAHLLAJYdKm-37">
          <mxGeometry y="270" width="320" height="30" as="geometry" />
        </mxCell>
        <mxCell id="uXHcdg8YxAAHLLAJYdKm-60" value="linkedin" style="shape=partialRectangle;connectable=0;fillColor=none;top=0;left=0;bottom=0;right=0;editable=1;overflow=hidden;" vertex="1" parent="uXHcdg8YxAAHLLAJYdKm-59">
          <mxGeometry width="70" height="30" as="geometry" />
        </mxCell>
        <mxCell id="uXHcdg8YxAAHLLAJYdKm-61" value="String" style="shape=partialRectangle;connectable=0;fillColor=none;top=0;left=0;bottom=0;right=0;align=left;spacingLeft=6;overflow=hidden;" vertex="1" parent="uXHcdg8YxAAHLLAJYdKm-59">
          <mxGeometry x="70" width="250" height="30" as="geometry" />
        </mxCell>
      </root>
    </mxGraphModel>
  </diagram>
</mxfile>
